<mxfile host="app.diagrams.net" modified="2023-12-15T06:51:11.908Z" agent="Mozilla/5.0 (Windows NT 10.0; Win64; x64) AppleWebKit/537.36 (KHTML, like Gecko) Chrome/120.0.0.0 Safari/537.36" version="22.1.9" etag="8l-rHX8tlcbdfoU3urbR" type="github">
  <diagram name="Страница — 1" id="w9ykjsOycGWNq0ipaZT-">
    <mxGraphModel>
      <root>
        <mxCell id="0" />
        <mxCell id="1" parent="0" />
      </root>
    </mxGraphModel>
  </diagram>
</mxfile>
